<?xml version="1.0" encoding="utf-8"?>
<!-- Generator: Adobe Illustrator 20.1.0, SVG Export Plug-In . SVG Version: 6.00 Build 0)  -->
<svg version="1.1" id="Layer_1" xmlns="http://www.w3.org/2000/svg" xmlns:xlink="http://www.w3.org/1999/xlink" x="0px" y="0px"
	 viewBox="0 0 210.8 80" style="enable-background:new 0 0 210.8 80;" xml:space="preserve">
<style type="text/css">
	.st0{fill:#FFFFFF;}
</style>
<g>
	<g>
		<path class="st0" d="M32.4,69.9v-7.7h1.3v6.6h3.3v1.1L32.4,69.9L32.4,69.9z"/>
		<path class="st0" d="M39.3,69.9v-7.7h1.3v7.7H39.3z"/>
		<path class="st0" d="M48,62.2h1.3l-2.7,7.7h-1.3l-2.7-7.7h1.3l1.6,4.8c0.1,0.2,0.2,0.5,0.3,0.9s0.2,0.6,0.2,0.8
			c0-0.3,0.1-0.6,0.2-0.9c0.1-0.4,0.2-0.6,0.2-0.8L48,62.2z"/>
		<path class="st0" d="M55.7,69.9h-4.3v-7.7h4.3v1.1h-3.1v2.1h2.9v1.1h-2.9v2.4h3.1V69.9z"/>
		<path class="st0" d="M71,66.1c0,1.3-0.3,2.2-0.9,2.9s-1.5,1-2.7,1c-1.2,0-2.1-0.3-2.7-1s-0.9-1.7-0.9-2.9s0.3-2.2,0.9-2.9
			s1.5-1,2.7-1c1.1,0,2,0.3,2.6,1S71,64.8,71,66.1z M65.1,66.1c0,0.9,0.2,1.7,0.6,2.2c0.4,0.5,0.9,0.7,1.7,0.7
			c0.7,0,1.3-0.2,1.7-0.7c0.4-0.5,0.6-1.2,0.6-2.2c0-0.9-0.2-1.7-0.6-2.1c-0.4-0.5-0.9-0.7-1.7-0.7c-0.8,0-1.3,0.2-1.7,0.7
			C65.3,64.4,65.1,65.1,65.1,66.1z"/>
		<path class="st0" d="M80.1,69.9h-1.5l-3.8-6.1h0l0,0.3c0,0.7,0.1,1.2,0.1,1.8v4h-1.1v-7.7h1.5l3.8,6.1h0c0-0.1,0-0.4,0-0.9
			c0-0.5,0-0.9,0-1.2v-4h1.2L80.1,69.9L80.1,69.9z"/>
		<path class="st0" d="M83.2,69.9v-7.7h1.3v6.6h3.3v1.1L83.2,69.9L83.2,69.9z"/>
		<path class="st0" d="M90.1,69.9v-7.7h1.3v7.7H90.1z"/>
		<path class="st0" d="M100.9,69.9h-1.5l-3.8-6.1h0l0,0.3c0,0.7,0.1,1.2,0.1,1.8v4h-1.1v-7.7H96l3.8,6.1h0c0-0.1,0-0.4,0-0.9
			c0-0.5,0-0.9,0-1.2v-4h1.2V69.9z"/>
		<path class="st0" d="M108.4,69.9H104v-7.7h4.3v1.1h-3.1v2.1h2.9v1.1h-2.9v2.4h3.1V69.9z"/>
		<path class="st0" d="M119.5,69.9h-1.3v-6.6h-2.3v-1.1h5.8v1.1h-2.3L119.5,69.9L119.5,69.9z"/>
		<path class="st0" d="M130,62.2v5c0,0.6-0.1,1.1-0.4,1.5c-0.2,0.4-0.6,0.8-1.1,1c-0.5,0.2-1,0.3-1.7,0.3c-1,0-1.7-0.3-2.2-0.8
			c-0.5-0.5-0.8-1.2-0.8-2.1v-5h1.3v4.9c0,0.6,0.1,1.1,0.4,1.4c0.3,0.3,0.7,0.5,1.4,0.5c1.2,0,1.8-0.6,1.8-1.9v-4.9L130,62.2
			L130,62.2z"/>
		<path class="st0" d="M135.7,69.9h-1.3v-6.6h-2.3v-1.1h5.8v1.1h-2.3L135.7,69.9L135.7,69.9z"/>
		<path class="st0" d="M147,66.1c0,1.3-0.3,2.2-0.9,2.9c-0.6,0.7-1.5,1-2.7,1c-1.2,0-2.1-0.3-2.7-1c-0.6-0.7-0.9-1.7-0.9-2.9
			s0.3-2.2,0.9-2.9s1.5-1,2.7-1c1.1,0,2,0.3,2.6,1C146.7,63.9,147,64.8,147,66.1z M141.2,66.1c0,0.9,0.2,1.7,0.6,2.2
			c0.4,0.5,0.9,0.7,1.7,0.7c0.7,0,1.3-0.2,1.7-0.7c0.4-0.5,0.6-1.2,0.6-2.2c0-0.9-0.2-1.7-0.6-2.1c-0.4-0.5-0.9-0.7-1.7-0.7
			c-0.8,0-1.3,0.2-1.7,0.7C141.4,64.4,141.2,65.1,141.2,66.1z"/>
		<path class="st0" d="M151,66.9v3.1h-1.3v-7.7h2.2c1,0,1.7,0.2,2.2,0.6s0.7,0.9,0.7,1.7c0,1-0.5,1.6-1.5,2l2.2,3.4h-1.4l-1.8-3.1
			H151z M151,65.8h0.9c0.6,0,1-0.1,1.3-0.3c0.3-0.2,0.4-0.5,0.4-1c0-0.4-0.1-0.7-0.4-0.9c-0.3-0.2-0.7-0.3-1.3-0.3H151V65.8z"/>
		<path class="st0" d="M157.7,69.9v-7.7h1.3v7.7H157.7z"/>
		<path class="st0" d="M168.5,69.9h-1.5l-3.8-6.1h0l0,0.3c0,0.7,0.1,1.2,0.1,1.8v4h-1.1v-7.7h1.5l3.8,6.1h0c0-0.1,0-0.4,0-0.9
			c0-0.5,0-0.9,0-1.2v-4h1.2L168.5,69.9L168.5,69.9z"/>
		<path class="st0" d="M174.7,65.8h2.8v3.9c-0.5,0.2-0.9,0.3-1.3,0.3c-0.4,0.1-0.9,0.1-1.4,0.1c-1.2,0-2.1-0.3-2.7-1
			s-0.9-1.7-0.9-2.9c0-1.2,0.4-2.2,1.1-2.9c0.7-0.7,1.7-1,2.9-1c0.8,0,1.6,0.2,2.3,0.5l-0.4,1c-0.6-0.3-1.2-0.4-1.9-0.4
			c-0.8,0-1.5,0.3-1.9,0.8c-0.5,0.5-0.7,1.2-0.7,2.1c0,0.9,0.2,1.7,0.6,2.1c0.4,0.5,1,0.7,1.9,0.7c0.4,0,0.8-0.1,1.3-0.2v-2h-1.6
			L174.7,65.8L174.7,65.8z"/>
	</g>
	<g>
		<g>
			<path class="st0" d="M45.9,52.6c3.8-0.5,8.6-2.7,14.8-6.6c2.1,3.8,5.7,5.6,9.7,5.6c4.4,0.1,7.4-1.5,9.4-3.7
				c1.4,2.5,3.9,3.9,6.9,3.9c2.5,0,4.5-1.1,6-2.5c1,1.6,2.8,2.7,5,2.7c2.8,0,5-1.4,6.5-3.4c1.3,2.2,3.4,3.5,6.3,3.6
				c2.5,0,4.4-1.1,5.8-2.6c1,1.6,2.8,2.8,5.1,2.8c2.5,0,4.5-1.1,6-2.8c0,2.4,1.8,2.9,3.2,2.9c1.9,0,1.9-1.6,1.9-2.8l0.2-9.8
				c0.6-5.3,4.8-9.6,6.7-9.6c1.3,0,1.4,1.8,1.3,3.8l-0.2,12.2c-0.1,3.4,2,6.3,5.5,6.4c2.7,0,4.8-1.3,6.3-3.1c1,2.3,2.9,3.3,5.3,3.3
				c2.8,0,4.9-1.4,6.5-3.3c1.2,2.2,3.1,3.6,5.7,3.6c2.9,0,5.1-1.9,6.8-4.7c0.4,2.7,2.4,4.8,5.4,4.8c5.8,0.1,7.8-4.6,9.1-9
				c0.1-0.3,0.1-0.4,0.1-0.5c0-1.3-1.2-2.8-2.3-2.8c-0.7,0-1.3,0.6-1.6,2c-0.6,2.9-1.2,5.9-3.9,5.8c-1.7,0-2.2-2.5-2.1-3.1l0.3-15.7
				c0-1.6-0.9-3-3.1-3c-0.9,0-2.1,0.2-2.1,0.7c0,0.5,0.7,0.6,0.6,2.6l-0.2,9.4c0,4.7-3,9-5.6,8.9c0,0-5.8,1.8-2.4-18
				c0.3-1.5,1.5-3.6-1-3.7c-3.5-0.1-3.1,1.3-3.6,2.4c0,0-1,6.8-1.1,13.9c0,0.1,0,0.2,0,0.3c-0.8,2.4-2,4.8-4,4.7
				c-1.4,0-2.3-1-2.2-3.1l0.3-20.5c3.5,0.1,7,0.1,12.4,0.1c1.7,0,2.5-6.5,0.5-4.5c-4.6,0.1-8.8,0.1-12.8,0.1l0.1-6.3
				c0-1.6-1.4-3-3.6-3c-0.9,0-2.1,0.2-2.2,0.7c0,0.5,0.7,0.6,0.6,2.6l-0.1,5.9c-3.6-0.1-6-0.3-6-0.3c-1.9,0-0.8,4.5,1.3,4.5
				c0,0,1.7,0.2,4.6,0.2l-0.3,17.3c-0.7,2.8-2,6.3-4.4,6.2c-1.7,0-1.7-2.5-1.7-3.1l0.2-12.5c0.1-3.1-1-6.8-5.4-6.8
				c-3.3-0.1-5.7,2.8-7.6,6.5l0-3c0-1.6-1.4-3-3.6-3c-0.9,0-1.7,0.4-1.8,1.1c0,0.5,0.2,0.9,0.2,2.1L127.7,40
				c-0.1,0.3-0.2,0.5-0.3,0.9c-0.7,2.9-1.9,7.2-4.6,7.1c-1.6,0-2.3-1.6-2.2-3.1l0.2-9.7c0-1.6-1.4-3-3.6-3c-0.9,0-1.8,0.4-1.8,1.1
				c0,0.5,0.3,0.9,0.2,2.1l-0.1,9c-0.8,1.9-2,3.4-3.8,3.4c-2.3,0-3.8-2.1-3.7-5.6c0.2-9.6,6.2-12.5,11.2-12.5c0.7,0,1.3,0.2,1.9,0.2
				c0.7,0,0.9-0.4,0.9-1.5c0-1.7-1.2-2.8-3-2.9c-8.2-0.1-16,5.2-16.2,16.4c0,0.5,0,1,0.1,1.5c-0.8,2.2-1.9,4.1-3.8,4.1
				c-1.6,0-2.3-1.6-2.2-1.8l0.5-31.2c0-2.9-1.3-4.3-3.5-4.3c-0.9,0-2.1,0.2-2.2,0.7c0,0.5,0.7,0.6,0.6,2.6l-0.2,11.8
				c-7.3,0.9-13.6,5.4-13.8,15.6c0,0.5,0,1,0,1.4c-1.3,2.7-3.5,4.9-7.2,4.8c-3.3-0.1-5.1-1.8-6-4 M65.2,43.2
				c6.1-3.6,10.1-7.3,10.2-11.8c0.1-4-2.2-6.8-5.9-6.9c-5.2-0.1-10.6,5.1-10.7,13.6c0,1.3,0.3,3,0.6,4.2c0,0-5.7,4.8-13,7l-0.5,3.2
				 M68.8,29c0.9,0,1.4,0.9,1.4,2.4c-0.1,4-2.8,6-5.8,7.9c0-0.4-0.1-0.8-0.1-1.2C64.2,35.3,65.5,29,68.8,29z M91.8,44.9
				c-0.9,1.5-2.2,2.6-3.9,2.6c-2.3,0-4.5-2.1-4.4-6.9c0.1-8.4,4.2-11.4,8.6-12.2L91.8,44.9z"/>
			<path class="st0" d="M57.2,7.6c-1.4-1.2-5.5-0.8-6.1,2.3c-1.4,7.4-3.5,16.8-5.2,24c-3.1-0.4-6.1,0.7-7.8,1.8
				c-3.5-5.5-8.2-13.3-12.1-19.5c-1.5-2.4-5.6-1.6-6.5,0c-0.4,0.7,0.5,0.6,1.8,2.7C29.1,30.4,34.6,40.8,43,51.6
				c1.5,1.9,4.3,1.1,4.8-1.2c2.8-13.4,5.5-25.2,8.5-39C56.9,8.7,57.8,8.1,57.2,7.6z"/>
			<path class="st0" d="M50.5,61.1"/>
		</g>
	</g>
</g>
</svg>
